<svg viewBox="0 0 32 32" version="1.1" xmlns="https://github.com/D-G-Tomlinson/Gallifreyan"> <path fill-opacity="0" stroke="#000000" stroke-width="0.2" d="M 12.173165676349097 25.238795325112864 A 4.592201188381082 4.592201188381082 0 0 1 19.8268343236509 25.238795325112868"></path><circle fill="#000000" stroke="#000000" cx="12.173165676349097" cy="25.238795325112864" r="0.1" stroke-width="0" fill-opacity="1"></circle><circle fill="#000000" stroke="#000000" cx="19.8268343236509" cy="25.238795325112868" r="0.1" stroke-width="0" fill-opacity="1"></circle><circle fill="#000000" stroke="#000000" cx="15.999999999999998" cy="23.185028854012486" r="0.7653668647301803" stroke-width="0.2" fill-opacity="0"></circle><path stroke="#000000" stroke-width="0.4" d="M 14.519011457938204 23.430393871930008 L 14.074714895319666 22.12634302079094"></path><path stroke="#000000" stroke-width="0.4" d="M 17.48098854206179 23.430393871930008 L 17.92528510468033 22.12634302079094"></path><path fill-opacity="0" stroke="#000000" stroke-width="0.2" d="M 19.8268343236509 25.238795325112868 A 10 10 0 0 0 25.238795325112868 19.826834323650896"></path><path fill-opacity="0" stroke="#000000" stroke-width="0.2" d="M 25.238795325112868 19.826834323650896 A 4.592201188381076 4.592201188381076 0 0 1 25.238795325112868 12.173165676349102"></path><circle fill="#000000" stroke="#000000" cx="25.238795325112868" cy="19.826834323650896" r="0.1" stroke-width="0" fill-opacity="1"></circle><circle fill="#000000" stroke="#000000" cx="25.238795325112868" cy="12.173165676349102" r="0.1" stroke-width="0" fill-opacity="1"></circle><circle fill="#000000" stroke="#000000" cx="23.730915998730328" cy="18.171555759040547" r="0.45922011883810765" stroke-width="0" fill-opacity="1"></circle><circle fill="#000000" stroke="#000000" cx="23.185028854012497" cy="16" r="0.45922011883810765" stroke-width="0" fill-opacity="1"></circle><circle fill="#000000" stroke="#000000" cx="23.730915998730328" cy="13.828444240959453" r="0.45922011883810765" stroke-width="0" fill-opacity="1"></circle><path fill-opacity="0" stroke="#000000" stroke-width="0.2" d="M 25.238795325112868 12.173165676349102 A 10 10 0 0 0 19.8268343236509 6.761204674887132"></path><path fill-opacity="0" stroke="#000000" stroke-width="0.2" d="M 17.950903220161283 6.192147195967696 A 2.341083864193539 2.341083864193539 0 1 1 14.049096779838719 6.192147195967696"></path><circle fill="#000000" stroke="#000000" cx="17.950903220161283" cy="6.192147195967696" r="0.1" stroke-width="0" fill-opacity="1"></circle><circle fill="#000000" stroke="#000000" cx="14.049096779838719" cy="6.192147195967696" r="0.1" stroke-width="0" fill-opacity="1"></circle><path fill-opacity="0" stroke="#000000" stroke-width="0.2" d="M 19.8268343236509 6.761204674887132 A 10 10 0 0 0 17.950903220161283 6.192147195967696"></path><path fill-opacity="0" stroke="#000000" stroke-width="0.2" d="M 14.049096779838719 6.192147195967696 A 10 10 0 0 0 12.173165676349104 6.761204674887132"></path><circle fill="#000000" stroke="#000000" cx="18.062793011126598" cy="8.593279518418965" r="0.23410838641935394" stroke-width="0" fill-opacity="1"></circle><circle fill="#000000" stroke="#000000" cx="16" cy="9.827313856875456" r="0.23410838641935394" stroke-width="0" fill-opacity="1"></circle><circle fill="#000000" stroke="#000000" cx="13.937206988873402" cy="8.593279518418964" r="0.23410838641935394" stroke-width="0" fill-opacity="1"></circle><path fill-opacity="0" stroke="#000000" stroke-width="0.2" d="M 12.173165676349104 6.761204674887132 A 10 10 0 0 0 6.761204674887132 12.1731656763491"></path><path fill-opacity="0" stroke="#000000" stroke-width="0.2" d="M 6.761204674887132 12.1731656763491 A 4.592201188381077 4.592201188381077 0 0 1 6.761204674887132 19.826834323650896"></path><circle fill="#000000" stroke="#000000" cx="6.761204674887132" cy="12.1731656763491" r="0.1" stroke-width="0" fill-opacity="1"></circle><circle fill="#000000" stroke="#000000" cx="6.761204674887132" cy="19.826834323650896" r="0.1" stroke-width="0" fill-opacity="1"></circle><path stroke="#000000" stroke-width="0.4" d="M 8.269084001269675 13.828444240959449 L 9.482978214368648 13.176977513247284"></path><path stroke="#000000" stroke-width="0.4" d="M 8.814971145987508 15.999999999999998 L 10.19263150250183 15.999999999999996"></path><path stroke="#000000" stroke-width="0.4" d="M 8.269084001269675 18.17155575904055 L 9.482978214368648 18.823022486752713"></path><path fill-opacity="0" stroke="#000000" stroke-width="0.2" d="M 6.761204674887132 19.826834323650896 A 10 10 0 0 0 12.173165676349097 25.238795325112864"></path></svg>