<svg viewBox="0 0 220.00000000000003 220.00000000000003" version="1.1" xmlns="http://www.w3.org/2000/svg" xmlns:xlink="http://www.w3.org/1999/xlink" id="generated_svg" stroke="rgb(0, 0, 0)" fill="rgb(0, 0, 0)">
    <g id="all_gall">
<g class="sentence"><circle cx="110.00000000000001" cy="110.00000000000001" r="104" stroke-width="2" fill-opacity="0"></circle>
<circle cx="110.00000000000001" cy="110.00000000000001" r="101" stroke-width="1" fill-opacity="0"></circle>
<g class="plainword word"><g class="letter consonant"><path fill-opacity="0" stroke-width="1.25" d="M 90.68643785156578 169.44103226844712 A 62.5 62.5 0 0 0 129.31356214843422 169.44103226844712"></path>
<circle cx="110" cy="159.75304898203342" r="11.588137289060526" stroke-width="1.25" fill-opacity="0"></circle>
<g class="vowel"><circle cx="110.00000000000001" cy="148.1649116929729" r="3.8627124296868427" stroke-width="1.25" fill-opacity="0"></circle></g>
<circle cx="101.80594954158462" cy="167.94709944044882" r="4.635254915624211" stroke-width="0" fill-opacity="1"></circle>
<circle cx="101.80594954158461" cy="151.55899852361804" r="4.635254915624211" stroke-width="0" fill-opacity="1"></circle>
<circle cx="118.19405045841539" cy="151.55899852361804" r="4.635254915624211" stroke-width="0" fill-opacity="1"></circle>
<circle cx="118.1940504584154" cy="167.94709944044882" r="4.635254915624211" stroke-width="0" fill-opacity="1"></circle></g>
<path fill-opacity="0" stroke-width="1.25" d="M 129.31356214843422 169.44103226844712 A 62.5 62.5 0 0 0 160.56356214843422 146.7365782682796"></path>
<g class="letter consonant"><path fill-opacity="0" stroke-width="1.25" d="M 160.56356214843422 146.7365782682796 A 62.5 62.5 0 0 0 172.5 110.00000000000001"></path>
<circle cx="157.31796143991485" cy="125.37453765741753" r="11.588137289060533" stroke-width="1.25" fill-opacity="0"></circle>
<path stroke-width="2.5" d="M 146.29698795943096 121.79360630194779 L 133.07181978285033 117.49648867538411"></path><circle cx="133.07181978285033" cy="117.49648867538411" r="1.25" stroke-width="0" fill-opacity="1"></circle></g>
<path fill-opacity="0" stroke-width="1.25" d="M 172.5 110.00000000000001 A 62.5 62.5 0 0 0 160.56356214843424 73.26342173172044"></path>
<g class="letter consonant"><path fill-opacity="0" stroke-width="1.25" d="M 160.56356214843424 73.26342173172044 A 23.176274578121053 23.176274578121053 0 0 1 129.31356214843424 50.55896773155292"></path>
<circle cx="160.56356214843424" cy="73.26342173172044" r="0.625" stroke-width="0" fill-opacity="1"></circle>
<circle cx="129.31356214843424" cy="50.55896773155292" r="0.625" stroke-width="0" fill-opacity="1"></circle>
<g class="vowel"><circle cx="142.79134175772862" cy="64.86659005667093" r="3.8627124296868427" stroke-width="1.25" fill-opacity="0"></circle></g>
<path stroke-width="2.5" d="M 138.84610524717766 70.29674226177605 L 130.67250180711736 81.54674226177605"></path><circle cx="130.67250180711736" cy="81.54674226177605" r="1.25" stroke-width="0" fill-opacity="1"></circle></g>
<path fill-opacity="0" stroke-width="1.25" d="M 129.31356214843424 50.55896773155292 A 62.5 62.5 0 0 0 90.68643785156581 50.55896773155291"></path>
<g class="letter consonant"><path fill-opacity="0" stroke-width="1.25" d="M 90.68643785156581 50.55896773155291 A 23.176274578121053 23.176274578121053 0 0 1 59.436437851565806 73.26342173172043"></path>
<circle cx="90.68643785156581" cy="50.55896773155291" r="0.625" stroke-width="0" fill-opacity="1"></circle>
<circle cx="59.436437851565806" cy="73.26342173172043" r="0.625" stroke-width="0" fill-opacity="1"></circle>
<circle cx="90.68643785156581" cy="50.55896773155291" r="4.635254915624211" stroke-width="0" fill-opacity="1"></circle>
<circle cx="81.15389475282237" cy="70.29674226177606" r="4.635254915624211" stroke-width="0" fill-opacity="1"></circle>
<circle cx="59.436437851565806" cy="73.26342173172044" r="4.635254915624211" stroke-width="0" fill-opacity="1"></circle></g>
<path fill-opacity="0" stroke-width="1.25" d="M 59.436437851565806 73.26342173172043 A 62.5 62.5 0 0 0 47.500000000000014 110"></path>
<g class="letter consonant"><path fill-opacity="0" stroke-width="1.25" d="M 47.500000000000014 110 A 23.176274578121056 23.176274578121056 0 0 1 59.4364378515658 146.73657826827957"></path>
<circle cx="47.500000000000014" cy="110" r="0.625" stroke-width="0" fill-opacity="1"></circle>
<circle cx="59.4364378515658" cy="146.73657826827957" r="0.625" stroke-width="0" fill-opacity="1"></circle></g>
<path fill-opacity="0" stroke-width="1.25" d="M 59.4364378515658 146.73657826827957 A 62.5 62.5 0 0 0 90.68643785156578 169.44103226844712"></path></g></g>
    </g>
</svg>