<svg viewBox="0 0 35.2 35.2" version="1.1" xmlns="http://www.w3.org/2000/svg" xmlns:xlink="http://www.w3.org/1999/xlink" id="generated_svg" stroke="rgb(0, 0, 0)" fill="rgb(0, 0, 0)">
    <g id="all_gall">
<g class="sentence"><circle cx="17.6" cy="17.6" r="16" stroke-width="0.4" fill-opacity="0"></circle>
<circle cx="17.6" cy="17.6" r="15.2" stroke-width="0.1" fill-opacity="0"></circle>
<g class="plainword word"><g class="letter consonant"><path fill-opacity="0" stroke-width="0.2" d="M 16.294738077799487 27.514448613738104 A 1.5663143066406173 1.5663143066406173 0 1 1 18.905261922200513 27.514448613738107"></path>
<circle cx="16.294738077799487" cy="27.514448613738104" r="0.1" stroke-width="0" fill-opacity="1"></circle>
<circle cx="18.905261922200513" cy="27.514448613738107" r="0.1" stroke-width="0" fill-opacity="1"></circle>
<path fill-opacity="0" stroke-width="0.2" d="M 15.011809548974796 27.259258262890683 A 10 10 0 0 0 16.294738077799487 27.514448613738104"></path>
<path fill-opacity="0" stroke-width="0.2" d="M 18.905261922200513 27.514448613738107 A 10 10 0 0 0 20.188190451025203 27.259258262890686"></path>
<g class="vowel"><circle cx="17.6" cy="25.082321497282052" r="0.5176380902050409" stroke-width="0.2" fill-opacity="0"></circle></g>
<circle cx="16.093353572286237" cy="26.220433691545313" r="0.15663143066406174" stroke-width="0" fill-opacity="1"></circle>
<circle cx="16.945204165804633" cy="25.22575741041623" r="0.15663143066406174" stroke-width="0" fill-opacity="1"></circle>
<circle cx="18.25479583419537" cy="25.22575741041623" r="0.15663143066406174" stroke-width="0" fill-opacity="1"></circle></g>
<path fill-opacity="0" stroke-width="0.2" d="M 20.188190451025203 27.259258262890686 A 10 10 0 0 0 24.671067811865477 24.671067811865477"></path>
<g class="letter consonant"><path fill-opacity="0" stroke-width="0.2" d="M 24.671067811865477 24.671067811865477 A 3.1058285412302458 3.1058285412302458 0 0 1 27.259258262890683 20.188190451025218"></path>
<circle cx="24.671067811865477" cy="24.671067811865477" r="0.1" stroke-width="0" fill-opacity="1"></circle>
<circle cx="27.259258262890683" cy="20.188190451025218" r="0.1" stroke-width="0" fill-opacity="1"></circle>
<path stroke-width="0.4" d="M 24.40513700455062 22.68553289791101 L 23.491088529089808 22.504782329489768"></path>
<path stroke-width="0.4" d="M 25.406769183647732 20.950655073218883 L 24.793210361916053 20.249441157390002"></path></g>
<path fill-opacity="0" stroke-width="0.2" d="M 27.259258262890683 20.188190451025218 A 10 10 0 0 0 27.259258262890683 15.011809548974796"></path>
<g class="letter consonant"><path fill-opacity="0" stroke-width="0.2" d="M 27.259258262890683 15.011809548974796 A 10 10 0 0 0 24.67106781186548 10.52893218813453"></path>
<circle cx="24.7809045087671" cy="13.454102848838321" r="1.5529142706151242" stroke-width="0.2" fill-opacity="0"></circle>
<path stroke-width="0.4" d="M 23.436041300515022 14.230559984145884 L 22.830852856801584 14.579965695034286"></path></g>
<path fill-opacity="0" stroke-width="0.2" d="M 24.67106781186548 10.52893218813453 A 10 10 0 0 0 20.188190451025214 7.94074173710932"></path>
<g class="letter consonant"><path fill-opacity="0" stroke-width="0.2" d="M 20.188190451025214 7.94074173710932 A 10 10 0 0 0 15.011809548974803 7.940741737109317"></path>
<circle cx="17.60000000000001" cy="9.308205697676637" r="1.5529142706151238" stroke-width="0.2" fill-opacity="0"></circle>
<g class="vowel"><circle cx="17.600000000000005" cy="10.86111996829176" r="0.5176380902050414" stroke-width="0.2" fill-opacity="0"></circle></g>
<circle cx="19.133795319030366" cy="9.551135010853656" r="0.23293714059226858" stroke-width="0" fill-opacity="1"></circle>
<circle cx="18.30500832576924" cy="10.691862444299934" r="0.23293714059226858" stroke-width="0" fill-opacity="1"></circle>
<circle cx="16.894991674230774" cy="10.691862444299932" r="0.23293714059226858" stroke-width="0" fill-opacity="1"></circle></g>
<path fill-opacity="0" stroke-width="0.2" d="M 15.011809548974803 7.940741737109317 A 10 10 0 0 0 10.528932188134533 10.528932188134519"></path>
<g class="letter"><path fill-opacity="0" stroke-width="0.2" d="M 10.528932188134533 10.528932188134519 A 10 10 0 0 0 7.94074173710932 15.011809548974787"></path>
<g class="vowel"><circle cx="8.486975348710752" cy="12.338592764446448" r="0.5176380902050418" stroke-width="0.2" fill-opacity="0"></circle></g></g>
<path fill-opacity="0" stroke-width="0.2" d="M 7.94074173710932 15.011809548974787 A 10 10 0 0 0 7.940741737109317 20.1881904510252"></path>
<g class="letter consonant"><path fill-opacity="0" stroke-width="0.2" d="M 8.361204674887132 21.426834323650894 A 1.5663143066406169 1.5663143066406169 0 1 1 9.666466597087645 23.6876142900872"></path>
<circle cx="8.361204674887132" cy="21.426834323650894" r="0.1" stroke-width="0" fill-opacity="1"></circle>
<circle cx="9.666466597087645" cy="23.6876142900872" r="0.1" stroke-width="0" fill-opacity="1"></circle>
<path fill-opacity="0" stroke-width="0.2" d="M 7.940741737109317 20.1881904510252 A 10 10 0 0 0 8.361204674887132 21.426834323650894"></path>
<path fill-opacity="0" stroke-width="0.2" d="M 9.666466597087645 23.6876142900872 A 10 10 0 0 0 10.528932188134522 24.671067811865473"></path>
<circle cx="9.715035637166697" cy="20.55875825675004" r="0.1566314306640617" stroke-width="0" fill-opacity="1"></circle>
<circle cx="11.12011950407132" cy="21.341160748641027" r="0.1566314306640617" stroke-width="0" fill-opacity="1"></circle>
<circle cx="11.095158004580849" cy="22.949200317773595" r="0.1566314306640617" stroke-width="0" fill-opacity="1"></circle></g>
<path fill-opacity="0" stroke-width="0.2" d="M 10.528932188134522 24.671067811865473 A 10 10 0 0 0 15.011809548974785 27.259258262890683"></path></g></g>
    </g>
</svg>