<svg viewBox="0 0 220.00000000000003 220.00000000000003" version="1.1" xmlns="http://www.w3.org/2000/svg" xmlns:xlink="http://www.w3.org/1999/xlink" id="generated_svg" stroke="rgb(0, 0, 0)" fill="rgb(0, 0, 0)">
    <g id="all_gall">
<g class="sentence"><circle cx="110.00000000000001" cy="110.00000000000001" r="104" stroke-width="2" fill-opacity="0"></circle>
<circle cx="110.00000000000001" cy="110.00000000000001" r="101" stroke-width="1" fill-opacity="0"></circle>
<g class="plainword word"><g class="letter consonant"><path fill-opacity="0" stroke-width="1.25" d="M 101.84211298624679 171.96530383586315 A 9.789464416503856 9.789464416503856 0 1 1 118.15788701375322 171.96530383586315"></path>
<circle cx="101.84211298624679" cy="171.96530383586315" r="0.625" stroke-width="0" fill-opacity="1"></circle>
<circle cx="118.15788701375322" cy="171.96530383586315" r="0.625" stroke-width="0" fill-opacity="1"></circle>
<path fill-opacity="0" stroke-width="1.25" d="M 93.82380968109247 170.37036414306678 A 62.5 62.5 0 0 0 101.84211298624679 171.96530383586315"></path>
<path fill-opacity="0" stroke-width="1.25" d="M 118.15788701375322 171.96530383586315 A 62.5 62.5 0 0 0 126.17619031890753 170.37036414306678"></path>
<g class="vowel"><circle cx="110" cy="156.76450935801284" r="3.235238063781506" stroke-width="1.25" fill-opacity="0"></circle></g>
<circle cx="101.84211298624679" cy="171.96530383586315" r="3.882285676537807" stroke-width="0" fill-opacity="1"></circle>
<circle cx="103.5536125352291" cy="159.1866335342373" r="3.882285676537807" stroke-width="0" fill-opacity="1"></circle>
<circle cx="116.44638746477091" cy="159.1866335342373" r="3.882285676537807" stroke-width="0" fill-opacity="1"></circle></g>
<path fill-opacity="0" stroke-width="1.25" d="M 126.17619031890753 170.37036414306678 A 62.5 62.5 0 0 0 154.19417382415924 154.19417382415924"></path>
<g class="letter consonant"><path fill-opacity="0" stroke-width="1.25" d="M 154.19417382415924 154.19417382415924 A 19.411428382689035 19.411428382689035 0 0 1 170.37036414306678 126.17619031890762"></path>
<circle cx="154.19417382415924" cy="154.19417382415924" r="0.625" stroke-width="0" fill-opacity="1"></circle>
<circle cx="170.37036414306678" cy="126.17619031890762" r="0.625" stroke-width="0" fill-opacity="1"></circle>
<path stroke-width="2.5" d="M 154.19417382415924 154.19417382415924 L 143.76580840832978 159.380547646223"></path><circle cx="143.76580840832978" cy="159.380547646223" r="1.25" stroke-width="0" fill-opacity="1"></circle>
<path stroke-width="2.5" d="M 170.37036414306675 126.1761903189076 L 169.64771291858185 114.55177403782037"></path><circle cx="169.64771291858185" cy="114.55177403782037" r="1.25" stroke-width="0" fill-opacity="1"></circle></g>
<path fill-opacity="0" stroke-width="1.25" d="M 170.37036414306678 126.17619031890762 A 62.5 62.5 0 0 0 170.37036414306678 93.82380968109248"></path>
<g class="letter consonant"><path fill-opacity="0" stroke-width="1.25" d="M 170.37036414306678 93.82380968109248 A 62.5 62.5 0 0 0 154.19417382415924 65.80582617584082"></path>
<circle cx="154.8806531797944" cy="84.08814280523953" r="9.705714191344526" stroke-width="1.25" fill-opacity="0"></circle>
<path stroke-width="2.5" d="M 146.47525812821888 88.94099990091178 L 136.3887840663283 94.76442841571848"></path><circle cx="136.3887840663283" cy="94.76442841571848" r="1.25" stroke-width="0" fill-opacity="1"></circle></g>
<path fill-opacity="0" stroke-width="1.25" d="M 154.19417382415924 65.80582617584082 A 62.5 62.5 0 0 0 126.1761903189076 49.629635856933255"></path>
<g class="letter consonant"><path fill-opacity="0" stroke-width="1.25" d="M 126.1761903189076 49.629635856933255 A 62.5 62.5 0 0 0 93.82380968109251 49.629635856933234"></path>
<circle cx="110.00000000000006" cy="58.17628561047899" r="9.705714191344526" stroke-width="1.25" fill-opacity="0"></circle>
<g class="vowel"><circle cx="110.00000000000004" cy="67.88199980182353" r="3.235238063781509" stroke-width="1.25" fill-opacity="0"></circle></g>
<circle cx="116.86297632095828" cy="51.313309289520774" r="3.8822856765378106" stroke-width="0" fill-opacity="1"></circle>
<circle cx="116.86297632095827" cy="65.03926193143722" r="3.8822856765378106" stroke-width="0" fill-opacity="1"></circle>
<circle cx="103.13702367904182" cy="65.03926193143721" r="3.8822856765378106" stroke-width="0" fill-opacity="1"></circle></g>
<path fill-opacity="0" stroke-width="1.25" d="M 93.82380968109251 49.629635856933234 A 62.5 62.5 0 0 0 65.80582617584085 65.80582617584075"></path>
<g class="letter"><path fill-opacity="0" stroke-width="1.25" d="M 65.80582617584085 65.80582617584075 A 62.5 62.5 0 0 0 49.629635856933255 93.82380968109243"></path>
<g class="vowel"><circle cx="50.213779595411786" cy="75.48240955558063" r="6.470476127563024" stroke-width="1.25" fill-opacity="0"></circle></g></g>
<path fill-opacity="0" stroke-width="1.25" d="M 49.629635856933255 93.82380968109243 A 62.5 62.5 0 0 0 49.629635856933234 126.17619031890752"></path>
<g class="letter consonant"><path fill-opacity="0" stroke-width="1.25" d="M 52.25752921804458 133.9177145228181 A 9.789464416503856 9.789464416503856 0 1 1 60.415416231797785 148.04758931304502"></path>
<circle cx="52.25752921804458" cy="133.9177145228181" r="0.625" stroke-width="0" fill-opacity="1"></circle>
<circle cx="60.415416231797785" cy="148.04758931304502" r="0.625" stroke-width="0" fill-opacity="1"></circle>
<path fill-opacity="0" stroke-width="1.25" d="M 49.629635856933234 126.17619031890752 A 62.5 62.5 0 0 0 52.25752921804458 133.9177145228181"></path>
<path fill-opacity="0" stroke-width="1.25" d="M 60.415416231797785 148.04758931304502 A 62.5 62.5 0 0 0 65.80582617584076 154.1941738241592"></path>
<circle cx="52.25752921804458" cy="133.91771452281807" r="3.882285676537813" stroke-width="0" fill-opacity="1"></circle>
<circle cx="69.50074690044575" cy="133.38225467900642" r="3.882285676537813" stroke-width="0" fill-opacity="1"></circle>
<circle cx="60.415416231797785" cy="148.04758931304502" r="3.882285676537813" stroke-width="0" fill-opacity="1"></circle></g>
<path fill-opacity="0" stroke-width="1.25" d="M 65.80582617584076 154.1941738241592 A 62.5 62.5 0 0 0 93.82380968109243 170.37036414306678"></path></g></g>
    </g>
</svg>