<svg viewBox="0 0 35.2 35.2" version="1.1" xmlns="http://www.w3.org/2000/svg" xmlns:xlink="http://www.w3.org/1999/xlink"> <circle fill="#000000" stroke="#000000" cx="17.6" cy="17.6" r="16" stroke-width="0.4" fill-opacity="0"></circle><circle fill="#000000" stroke="#000000" cx="17.6" cy="17.6" r="15.2" stroke-width="0.1" fill-opacity="0"></circle><path fill-opacity="0" stroke="#000000" stroke-width="0.2" d="M 14.509830056250525 27.110565162951538 A 10 10 0 0 0 20.690169943749474 27.110565162951538"></path><circle fill="#000000" stroke="#000000" cx="17.6" cy="25.56048783712535" r="1.854101966249684" stroke-width="0.2" fill-opacity="0"></circle><circle fill="#000000" stroke="#000000" cx="17.6" cy="23.706385870875664" r="0.6180339887498948" stroke-width="0.2" fill-opacity="0"></circle><circle fill="#000000" stroke="#000000" cx="15.768725105660668" cy="25.270442387905042" r="0.2781152949374527" stroke-width="0" fill-opacity="1"></circle><circle fill="#000000" stroke="#000000" cx="16.75825532177423" cy="23.908470888686402" r="0.2781152949374527" stroke-width="0" fill-opacity="1"></circle><circle fill="#000000" stroke="#000000" cx="18.44174467822577" cy="23.9084708886864" r="0.2781152949374527" stroke-width="0" fill-opacity="1"></circle><circle fill="#000000" stroke="#000000" cx="19.43127489433933" cy="25.27044238790504" r="0.2781152949374527" stroke-width="0" fill-opacity="1"></circle><path fill-opacity="0" stroke="#000000" stroke-width="0.2" d="M 20.690169943749474 27.110565162951538 A 10 10 0 0 0 25.690169943749474 23.477852522924735"></path><path fill-opacity="0" stroke="#000000" stroke-width="0.2" d="M 25.690169943749474 23.477852522924735 A 10 10 0 0 0 27.6 17.6"></path><circle fill="#000000" stroke="#000000" cx="25.170873830386373" cy="20.059926025186805" r="1.8541019662496854" stroke-width="0.2" fill-opacity="0"></circle><path stroke="#000000" stroke-width="0.4" d="M 23.407518073508953 19.486977008311644 L 22.614007982914114 19.229149950717826"></path><path fill-opacity="0" stroke="#000000" stroke-width="0.2" d="M 27.6 17.6 A 10 10 0 0 0 25.690169943749474 11.72214747707527"></path><path fill-opacity="0" stroke="#000000" stroke-width="0.2" d="M 25.690169943749474 11.72214747707527 A 3.708203932499368 3.708203932499368 0 0 1 20.690169943749474 8.089434837048467"></path><circle fill="#000000" stroke="#000000" cx="25.690169943749474" cy="11.72214747707527" r="0.1" stroke-width="0" fill-opacity="1"></circle><circle fill="#000000" stroke="#000000" cx="20.690169943749474" cy="8.089434837048467" r="0.1" stroke-width="0" fill-opacity="1"></circle><circle fill="#000000" stroke="#000000" cx="22.846614681236577" cy="10.378654409067348" r="0.6180339887498948" stroke-width="0.2" fill-opacity="0"></circle><path stroke="#000000" stroke-width="0.4" d="M 22.215376839548423 11.247478761884167 L 21.5614885643436 12.147478761884168"></path><path fill-opacity="0" stroke="#000000" stroke-width="0.2" d="M 20.690169943749474 8.089434837048467 A 10 10 0 0 0 14.509830056250529 8.089434837048465"></path><path fill-opacity="0" stroke="#000000" stroke-width="0.2" d="M 14.509830056250529 8.089434837048465 A 3.708203932499368 3.708203932499368 0 0 1 9.509830056250529 11.722147477075268"></path><circle fill="#000000" stroke="#000000" cx="14.509830056250529" cy="8.089434837048465" r="0.1" stroke-width="0" fill-opacity="1"></circle><circle fill="#000000" stroke="#000000" cx="9.509830056250529" cy="11.722147477075268" r="0.1" stroke-width="0" fill-opacity="1"></circle><circle fill="#000000" stroke="#000000" cx="14.144162209439127" cy="9.860160566220966" r="0.3708203932499368" stroke-width="0" fill-opacity="1"></circle><circle fill="#000000" stroke="#000000" cx="12.98462316045158" cy="11.24747876188417" r="0.3708203932499368" stroke-width="0" fill-opacity="1"></circle><circle fill="#000000" stroke="#000000" cx="11.306887878512738" cy="11.921561031256942" r="0.3708203932499368" stroke-width="0" fill-opacity="1"></circle><path fill-opacity="0" stroke="#000000" stroke-width="0.2" d="M 9.509830056250529 11.722147477075268 A 10 10 0 0 0 7.600000000000001 17.6"></path><path fill-opacity="0" stroke="#000000" stroke-width="0.2" d="M 7.600000000000001 17.6 A 3.708203932499368 3.708203932499368 0 0 1 9.509830056250525 23.47785252292473"></path><circle fill="#000000" stroke="#000000" cx="7.600000000000001" cy="17.6" r="0.1" stroke-width="0" fill-opacity="1"></circle><circle fill="#000000" stroke="#000000" cx="9.509830056250525" cy="23.47785252292473" r="0.1" stroke-width="0" fill-opacity="1"></circle><path fill-opacity="0" stroke="#000000" stroke-width="0.2" d="M 9.509830056250525 23.47785252292473 A 10 10 0 0 0 14.509830056250525 27.110565162951538"></path></svg>